<?xml version="1.0" standalone="no"?>
<!DOCTYPE svg PUBLIC "-//W3C//DTD SVG 20010904//EN"
 "http://www.w3.org/TR/2001/REC-SVG-20010904/DTD/svg10.dtd">
<svg version="1.0" xmlns="http://www.w3.org/2000/svg"
 width="640.000000pt" height="640.000000pt" viewBox="0 0 640.000000 640.000000"
 preserveAspectRatio="xMidYMid meet">
<metadata>
Created by potrace 1.14, written by Peter Selinger 2001-2017
</metadata>
<g transform="translate(0.000000,640.000000) scale(0.100000,-0.100000)"
fill="#000000" stroke="none">
<path d="M2813 6378 c-12 -12 -23 -30 -24 -38 -4 -22 10 -57 25 -63 8 -3 39
-37 70 -75 50 -63 104 -101 120 -85 18 18 127 -299 161 -467 11 -57 18 -164
17 -280 -1 -119 -8 -240 -15 -246 -1 -1 -33 -4 -72 -7 -269 -24 -473 -172
-557 -403 -39 -108 -32 -256 18 -367 10 -20 15 -39 13 -41 -2 -3 -47 -12 -99
-21 -209 -36 -519 -125 -683 -196 -183 -79 -304 -158 -477 -308 -95 -84 -78
-66 -204 -211 -121 -139 -149 -182 -180 -274 -16 -49 -37 -81 -93 -143 -172
-190 -230 -283 -220 -354 4 -27 14 -46 32 -61 15 -11 38 -33 52 -47 49 -52
163 -260 236 -431 41 -96 98 -226 126 -289 54 -119 126 -338 166 -506 21 -88
30 -132 49 -250 3 -16 8 -61 11 -100 3 -38 12 -119 20 -180 8 -60 17 -144 20
-185 18 -195 71 -274 267 -387 152 -89 212 -113 423 -170 71 -19 132 -36 136
-39 4 -2 24 -6 45 -10 22 -3 57 -12 79 -19 59 -19 118 -32 235 -54 125 -23
170 -30 323 -45 255 -27 879 -28 1077 -3 245 32 654 151 810 234 324 175 340
199 375 538 3 33 8 71 10 85 7 47 14 115 20 185 3 39 11 97 17 130 5 33 12 74
15 90 20 132 134 505 191 625 19 41 72 162 118 269 102 239 238 481 270 481 7
0 24 14 39 32 24 28 27 38 21 81 -3 28 -19 77 -35 111 -31 64 -40 79 -108 185
-38 59 -43 72 -43 126 0 83 -14 127 -73 225 -56 94 -193 239 -292 310 -33 24
-91 69 -130 100 -104 84 -280 186 -418 242 -67 27 -135 56 -152 63 -133 60
-368 121 -610 159 -215 33 -208 30 -191 64 21 40 37 133 37 207 0 252 -216
488 -493 540 -21 4 -38 12 -38 19 0 6 -1 90 -1 186 -1 285 -39 478 -145 742
-29 70 -33 91 -24 107 12 23 3 48 -25 71 -8 7 -29 39 -47 72 -34 65 -62 85
-130 94 -37 5 -46 2 -65 -18z"/>
</g>
</svg>
